<?xml version="1.0" encoding="utf-8"?>
<!-- Generator: Adobe Illustrator 24.0.1, SVG Export Plug-In . SVG Version: 6.00 Build 0)  -->
<svg version="1.1" id="Layer_1" xmlns="http://www.w3.org/2000/svg" xmlns:xlink="http://www.w3.org/1999/xlink" x="0px" y="0px"
	 viewBox="0 0 427 404" style="enable-background:new 0 0 427 404;" xml:space="preserve">
<style type="text/css">
	.st0{fill-rule:evenodd;clip-rule:evenodd;fill:#DB4A87;}
	.st1{enable-background:new    ;}
	.st2{fill:#FFFFFF;}
	.st3{fill-rule:evenodd;clip-rule:evenodd;fill:#004991;}
</style>
<path id="Shape_6_copy" class="st0" d="M332.2,111.6l0.1-15.5c-22-14.4-28.1-43.8-13.8-65.8c14.4-22,43.8-28.1,65.8-13.8
	s28.1,43.8,13.8,65.8c-11.6,17.8-33.7,25.7-54,19.3L332.2,111.6z"/>
<g class="st1">
	<path class="st2" d="M336.8,54.7c0,2.3-0.4,4-1.2,5.2c-0.8,1.2-1.9,1.8-3.4,1.8c-1.4,0-2.5-0.6-3.3-1.8c-0.8-1.2-1.2-2.9-1.2-5.1
		c0-2.3,0.4-4,1.1-5.1c0.7-1.2,1.9-1.7,3.3-1.7c1.5,0,2.6,0.6,3.4,1.8C336.4,50.8,336.8,52.5,336.8,54.7z M329.9,54.7
		c0,1.7,0.2,3,0.6,3.8c0.4,0.9,1,1.3,1.8,1.3c1.6,0,2.5-1.7,2.5-5.1c0-3.4-0.8-5.1-2.5-5.1c-0.8,0-1.4,0.4-1.8,1.3
		C330.1,51.7,329.9,52.9,329.9,54.7z M346.2,48.1l-12.2,22h-2.2l12.2-22H346.2z M350,63.5c0,2.3-0.4,4-1.1,5.2s-1.9,1.8-3.4,1.8
		c-1.4,0-2.5-0.6-3.3-1.8c-0.8-1.2-1.1-2.9-1.1-5.1c0-2.3,0.4-4,1.1-5.1c0.7-1.2,1.9-1.7,3.3-1.7c1.4,0,2.5,0.6,3.3,1.8
		C349.6,59.5,350,61.2,350,63.5z M343.1,63.5c0,1.7,0.2,3,0.6,3.8s1,1.3,1.8,1.3s1.5-0.4,1.9-1.3c0.4-0.8,0.6-2.1,0.6-3.9
		c0-1.7-0.2-3-0.6-3.8c-0.4-0.8-1-1.2-1.9-1.2s-1.4,0.4-1.8,1.2S343.1,61.7,343.1,63.5z"/>
	<path class="st2" d="M367.6,70.1h-14.4v-2.1l5.8-5.8c1.8-1.8,2.9-3.1,3.5-3.8s1-1.5,1.3-2.2c0.3-0.7,0.4-1.5,0.4-2.3
		c0-1.2-0.4-2.1-1.1-2.8c-0.7-0.7-1.7-1-3-1c-0.9,0-1.8,0.2-2.6,0.5c-0.8,0.3-1.7,0.8-2.7,1.6l-1.3-1.7c2-1.7,4.2-2.5,6.6-2.5
		c2.1,0,3.7,0.5,4.9,1.6c1.2,1.1,1.8,2.5,1.8,4.3c0,1.4-0.4,2.8-1.2,4.1c-0.8,1.4-2.2,3.1-4.4,5.2l-4.8,4.7v0.1h11.3V70.1z"/>
	<path class="st2" d="M371,60.7c0-4.3,0.8-7.5,2.5-9.7c1.7-2.1,4.2-3.2,7.4-3.2c1.1,0,2,0.1,2.7,0.3v2.1c-0.8-0.3-1.7-0.4-2.6-0.4
		c-2.4,0-4.2,0.7-5.4,2.2c-1.2,1.5-1.9,3.8-2,6.9h0.2c1.1-1.7,2.8-2.6,5.2-2.6c2,0,3.5,0.6,4.7,1.8c1.1,1.2,1.7,2.8,1.7,4.9
		c0,2.3-0.6,4.1-1.9,5.4c-1.2,1.3-2.9,2-5.1,2c-2.3,0-4.1-0.9-5.4-2.6C371.6,66.1,371,63.7,371,60.7z M378.4,68.3
		c1.4,0,2.5-0.4,3.3-1.3c0.8-0.9,1.2-2.2,1.2-3.9c0-1.5-0.4-2.6-1.1-3.4c-0.7-0.8-1.8-1.2-3.3-1.2c-0.9,0-1.7,0.2-2.5,0.6
		c-0.8,0.4-1.4,0.9-1.8,1.5c-0.4,0.7-0.7,1.3-0.7,2c0,1,0.2,2,0.6,2.9c0.4,0.9,1,1.6,1.7,2.1S377.4,68.3,378.4,68.3z"/>
</g>
<image style="overflow:visible;enable-background:new    ;" width="209" height="335" id="Vector_Smart_Object" xlink:href="8311947C3205A757.png"  transform="matrix(1 0 0 1 218 69)">
</image>
<path class="st3" d="M112.3,84.2l-15.2-3.1c-18.3,18.8-48.4,19.1-67.2,0.8s-19.1-48.4-0.8-67.2s48.4-19.1,67.2-0.8
	c15.2,14.9,18.7,38,8.5,56.7L112.3,84.2z"/>
<g class="st1">
	<path class="st2" d="M41.5,45c0,2.3-0.4,4-1.1,5.2c-0.8,1.2-1.9,1.8-3.4,1.8c-1.4,0-2.5-0.6-3.3-1.8c-0.8-1.2-1.2-2.9-1.2-5.1
		c0-2.3,0.4-4,1.1-5.1c0.7-1.2,1.9-1.7,3.3-1.7c1.5,0,2.6,0.6,3.4,1.8C41.1,41.2,41.5,42.8,41.5,45z M34.6,45c0,1.7,0.2,3,0.6,3.8
		c0.4,0.9,1,1.3,1.8,1.3c1.6,0,2.5-1.7,2.5-5.1c0-3.4-0.8-5.1-2.5-5.1c-0.8,0-1.4,0.4-1.8,1.3C34.8,42.1,34.6,43.3,34.6,45z
		 M50.8,38.5l-12.2,22h-2.2l12.2-22H50.8z M54.7,53.9c0,2.3-0.4,4-1.1,5.2c-0.8,1.2-1.9,1.8-3.4,1.8c-1.4,0-2.5-0.6-3.3-1.8
		c-0.8-1.2-1.1-2.9-1.1-5.1c0-2.3,0.4-4,1.1-5.1c0.7-1.2,1.9-1.7,3.3-1.7c1.4,0,2.5,0.6,3.3,1.8C54.3,49.9,54.7,51.6,54.7,53.9z
		 M47.8,53.9c0,1.7,0.2,3,0.6,3.8c0.4,0.8,1,1.3,1.8,1.3s1.5-0.4,1.9-1.3s0.6-2.1,0.6-3.9c0-1.7-0.2-3-0.6-3.8s-1-1.2-1.9-1.2
		s-1.4,0.4-1.8,1.2C48,50.9,47.8,52.1,47.8,53.9z"/>
	<path class="st2" d="M73.3,55.4H70v5.1h-2.4v-5.1H56.9v-2.2l10.4-14.9H70v14.8h3.3V55.4z M67.6,53.1v-7.3c0-1.4,0-3.1,0.2-4.9h-0.1
		c-0.5,1-0.9,1.8-1.4,2.4l-6.9,9.8H67.6z"/>
	<path class="st2" d="M90,49.4c0,3.8-0.6,6.6-1.8,8.5c-1.2,1.9-3,2.8-5.5,2.8c-2.4,0-4.2-1-5.4-2.9c-1.2-1.9-1.8-4.7-1.8-8.4
		c0-3.8,0.6-6.7,1.8-8.5c1.2-1.9,3-2.8,5.5-2.8c2.4,0,4.2,1,5.4,2.9S90,45.8,90,49.4z M77.9,49.4c0,3.2,0.4,5.5,1.1,7
		c0.8,1.5,1.9,2.2,3.6,2.2c1.7,0,2.9-0.7,3.6-2.2c0.7-1.5,1.1-3.8,1.1-7S87,44,86.3,42.5c-0.7-1.5-2-2.2-3.6-2.2
		c-1.6,0-2.8,0.7-3.6,2.2C78.3,43.9,77.9,46.3,77.9,49.4z"/>
</g>
<image style="overflow:visible;enable-background:new    ;" width="243" height="342" id="Vector_Smart_Object-2" xlink:href="8311947C3205A755.png"  transform="matrix(1 0 0 1 0 57)">
</image>
</svg>
